<?xml version="1.0" standalone="no"?><!DOCTYPE svg PUBLIC "-//W3C//DTD SVG 1.1//EN" "http://www.w3.org/Graphics/SVG/1.1/DTD/svg11.dtd"><svg t="1724123478271" class="icon" viewBox="0 0 1024 1024" version="1.1" xmlns="http://www.w3.org/2000/svg" p-id="4812" xmlns:xlink="http://www.w3.org/1999/xlink" width="200" height="200"><path d="M921.6 896q0 1.2544-0.49152 2.5088-0.49664 1.25952-1.47968 2.5088-0.98816 1.2544-2.46272 2.49344-1.47456 1.24416-3.43552 2.47808-1.96096 1.2288-4.40832 2.45248-2.44224 1.21856-5.36064 2.42176t-6.30272 2.38592q-3.38944 1.18272-7.23968 2.34496-3.84512 1.16224-8.14592 2.29376-4.3008 1.13664-9.0368 2.24768-4.74112 1.10592-9.91232 2.18624-5.16608 1.0752-10.752 2.1248-5.59104 1.04448-11.57632 2.05312-5.9904 1.00864-12.36992 1.98144t-13.1328 1.90464q-6.75328 0.92672-13.85984 1.8176-7.11168 0.89088-14.56128 1.73568-7.4496 0.83968-15.22688 1.6384-7.77216 0.79872-15.8464 1.54624-8.07424 0.74752-16.4352 1.44896-8.36096 0.69632-16.98816 1.34144-8.62208 0.64512-17.48992 1.23904-8.86784 0.59392-17.96096 1.1264-9.088 0.54272-18.37568 1.024-9.2928 0.48128-18.75968 0.90112-9.46688 0.42496-19.08736 0.78848-9.6256 0.36864-19.3792 0.67072-9.7536 0.3072-19.6096 0.55296-9.86624 0.24576-19.8144 0.43008-9.94304 0.18432-19.95264 0.3072-10.00448 0.12288-20.04992 0.18432-10.04032 0.06144-20.096 0.06144-10.05568 0-20.096-0.06144-10.04544-0.06144-20.04992-0.18432-10.0096-0.12288-19.95264-0.3072-9.94816-0.18432-19.8144-0.43008-9.856-0.24576-19.6096-0.55296-9.75872-0.3072-19.3792-0.6656-9.6256-0.36864-19.08736-0.7936-9.472-0.41984-18.75968-0.90112-9.28768-0.48128-18.3808-1.024-9.088-0.53248-17.95584-1.1264-8.86784-0.5888-17.48992-1.23904-8.6272-0.64512-16.98816-1.34144-8.36096-0.70144-16.4352-1.44896-8.07424-0.74752-15.85152-1.54624-7.77216-0.79872-15.22176-1.6384-7.4496-0.8448-14.55616-1.73568-7.1168-0.88576-13.86496-1.8176-6.75328-0.93184-13.1328-1.90464t-12.36992-1.98144q-5.9904-1.00864-11.5712-2.05312-5.59104-1.04448-10.75712-2.1248-5.1712-1.0752-9.91232-2.18624-4.736-1.10592-9.0368-2.24768-4.3008-1.13152-8.14592-2.29376-3.85024-1.16224-7.23968-2.34496-3.38432-1.18272-6.30272-2.38592-2.9184-1.2032-5.36064-2.42176-2.44736-1.21856-4.4032-2.4576-1.96608-1.2288-3.44064-2.47296-1.47456-1.24416-2.4576-2.49344-0.98816-1.24928-1.4848-2.5088Q102.4 897.25952 102.4 896t0.49152-2.5088q0.49664-1.25952 1.4848-2.5088 0.98304-1.24928 2.4576-2.49344t3.43552-2.47808q1.96096-1.2288 4.4032-2.45248 2.44736-1.21856 5.36576-2.42176 2.9184-1.2032 6.30272-2.38592 3.38944-1.18272 7.23968-2.34496 3.84512-1.16224 8.1408-2.29888 4.3008-1.13152 9.04192-2.24256 4.74112-1.10592 9.91232-2.18624 5.1712-1.0752 10.752-2.1248 5.58592-1.04448 11.57632-2.05312 5.9904-1.00864 12.36992-1.98144t13.1328-1.90464q6.75328-0.92672 13.86496-1.8176 7.10656-0.89088 14.55616-1.73568 7.4496-0.83968 15.22688-1.6384 7.77216-0.79872 15.8464-1.54624 8.07936-0.74752 16.4352-1.44896 8.36096-0.69632 16.98816-1.34144 8.62208-0.64512 17.48992-1.23904 8.86784-0.59392 17.96096-1.1264 9.088-0.54272 18.3808-1.024 9.28768-0.48128 18.75456-0.90112 9.46688-0.42496 19.08736-0.78848 9.6256-0.36864 19.3792-0.67072 9.7536-0.3072 19.6096-0.55296 9.86624-0.24576 19.8144-0.43008 9.94304-0.18432 19.95264-0.3072 10.00448-0.12288 20.04992-0.18432Q501.94432 844.8 512 844.8q10.05568 0 20.096 0.06144 10.04544 0.06144 20.04992 0.18432 10.0096 0.12288 19.95264 0.3072 9.94816 0.18432 19.8144 0.43008 9.856 0.24576 19.6096 0.55296t19.3792 0.6656q9.62048 0.36864 19.08736 0.7936 9.46688 0.41984 18.75968 0.90112 9.28768 0.48128 18.37568 1.024 9.09312 0.53248 17.96096 1.1264t17.48992 1.23904q8.6272 0.64512 16.98816 1.34144 8.36096 0.70144 16.4352 1.44896 8.07424 0.74752 15.8464 1.54624 7.77728 0.79872 15.22688 1.6384 7.4496 0.8448 14.56128 1.73568 7.10656 0.89088 13.85984 1.8176 6.75328 0.93184 13.1328 1.90464t12.36992 1.98144q5.98528 1.00864 11.57632 2.05312 5.58592 1.04448 10.752 2.1248 5.1712 1.0752 9.91232 2.18624 4.736 1.11104 9.0368 2.24256 4.3008 1.13664 8.14592 2.304 3.85024 1.15712 7.23968 2.33984 3.38432 1.18272 6.30272 2.38592 2.9184 1.2032 5.36064 2.42176 2.44736 1.21856 4.40832 2.4576 1.96096 1.2288 3.43552 2.47296 1.47456 1.24416 2.46272 2.49344 0.98304 1.24928 1.47968 2.5088 0.49152 1.2544 0.49152 2.5088z" fill="#4A68CC" opacity=".1" p-id="4813"></path><path d="M101.376 817.152c0 8.704 6.656 15.36 15.36 15.36s15.36-6.656 15.36-15.36-6.656-15.36-15.36-15.36c-8.192 0-15.36 7.168-15.36 15.36z m820.224 25.6c-15.36 4.096-18.944 7.168-23.04 23.04-4.096-15.36-7.168-18.944-23.04-23.04 15.36-4.096 18.944-7.68 23.04-23.04 4.096 15.36 7.168 18.944 23.04 23.04zM276.48 136.704c-19.456 5.12-23.552 9.216-29.184 29.184-5.12-19.456-9.216-23.552-29.184-29.184 19.456-5.12 23.552-9.216 29.184-29.184 5.632 19.456 9.728 23.552 29.184 29.184zM182.272 765.44c-21.504 5.632-26.112 10.24-31.744 31.744-5.632-21.504-10.24-26.112-31.744-31.744 21.504-5.632 26.112-10.24 31.744-31.744 6.144 21.504 10.752 26.112 31.744 31.744z m32.768-568.32c-39.936 10.24-48.128 18.944-58.88 58.88-10.24-39.936-18.944-48.128-58.88-58.88 39.936-10.24 48.128-18.944 58.88-58.88 10.24 39.424 18.944 48.128 58.88 58.88z" fill="#4A68CC" opacity=".5" p-id="4814"></path><path d="M760.32 473.088v4.608l37.376 35.84 145.92-71.168-131.584 84.48v41.472l20.992-20.48v-0.512l0.512 0.512 20.992 20.48L967.68 430.592v-5.12l-207.36 47.616z" fill="#4A68CC" opacity=".2" p-id="4815"></path><path d="M768 808.96h-35.84v-77.824c0-83.456-48.128-159.232-120.832-196.096 72.704-36.864 120.832-113.152 120.832-196.096V261.12h35.84c8.704 0 15.36-6.656 15.36-15.36s-6.656-15.36-15.36-15.36H256c-8.704 0-15.36 6.656-15.36 15.36s6.656 15.36 15.36 15.36h35.84v77.824c0 83.456 48.128 159.232 120.832 196.096-72.704 36.864-120.832 113.152-120.832 196.096V808.96h-35.84c-8.704 0-15.36 6.656-15.36 15.36s6.656 15.36 15.36 15.36h512c8.704 0 15.36-6.656 15.36-15.36s-6.656-15.36-15.36-15.36z m-445.44 0v-77.824c0-83.456 55.808-158.208 135.68-181.76 6.656-2.048 10.752-7.68 10.752-14.848s-4.608-12.8-10.752-14.848C378.368 496.64 322.56 421.888 322.56 338.944V261.12h378.88v77.824c0 83.456-55.808 158.208-135.68 181.76-6.656 2.048-10.752 7.68-10.752 14.848s4.608 12.8 10.752 14.848c79.872 23.552 135.68 98.304 135.68 181.76v76.8H322.56z" fill="#4A68CC" opacity=".5" p-id="4816"></path><path d="M662.528 701.44H517.12V497.152l38.912-11.264c56.832-16.896 98.304-65.536 108.032-122.368H360.448c9.728 57.344 51.2 105.472 108.032 122.368l38.912 11.264V701.44H361.472c-2.048 9.728-3.072 19.968-3.072 29.696v41.984h307.2v-41.984c0-9.728-1.024-19.968-3.072-29.696z" fill="#4A68CC" opacity=".2" p-id="4817"></path></svg>