<svg width="16" height="16" viewBox="0 0 16 16" fill="none" xmlns="http://www.w3.org/2000/svg">
    <path d="M15.0597 14.3526L1.6562 0.949188L0.949097 1.6563L14.3526 15.0598L15.0597 14.3526Z"></path>
    <path
        d="M2.99995 6H3.87865L4.87865 7H2.99995L2.99995 14H11.8787L12.8787 15H2.99995C2.44767 15 1.99995 14.5523 1.99995 14V7C1.99995 6.44772 2.44767 6 2.99995 6Z">
    </path>
    <path
        d="M13 7V10.8787L14 11.8787V7C14 6.44772 13.5522 6 13 6L11.5 6L11.5 4.90634C11.5001 4.43584 11.5003 3.47911 11.0708 2.63294C10.8465 2.191 10.5034 1.77401 9.98731 1.4713C9.4734 1.16985 8.81927 1 7.99995 1C7.18063 1 6.52651 1.16985 6.0126 1.4713C5.49654 1.77401 5.15343 2.191 4.92911 2.63294C4.90925 2.67206 4.89031 2.71142 4.87225 2.75096L5.64909 3.5278C5.69249 3.37696 5.74851 3.228 5.82081 3.08555C5.97149 2.7887 6.19088 2.52607 6.51856 2.33385C6.84841 2.14037 7.31928 2 7.99995 2C8.68063 2 9.1515 2.14037 9.48135 2.33385C9.80903 2.52607 10.0284 2.7887 10.1791 3.08556C10.4927 3.70342 10.5 4.44385 10.5 4.92858L10.5 6H8.12129L9.12129 7H13Z">
    </path>
    <path
        d="M7.49995 11.5V9.6213L8.49995 10.6213V11.5C8.49995 11.7761 8.2761 12 7.99995 12C7.72381 12 7.49995 11.7761 7.49995 11.5Z">
    </path>
</svg>