<?xml version="1.0" standalone="no"?><!DOCTYPE svg PUBLIC "-//W3C//DTD SVG 1.1//EN" "http://www.w3.org/Graphics/SVG/1.1/DTD/svg11.dtd"><svg class="icon" width="200px" height="200.00px" viewBox="0 0 1024 1024" version="1.1" xmlns="http://www.w3.org/2000/svg"><path d="M868.158786 491.322492c0 201.151565-159.958927 364.269985-357.227126 364.269985-197.259683 0-357.21861-163.109904-357.21861-364.269985 0-201.151565 159.958927-364.269985 357.21861-364.269986 197.268199 0 357.227126 163.109904 357.227126 364.269986" fill="#D33833" /><path d="M168.1309 581.517082S142.267339 201.688083 493.473544 190.804438l-24.475428-40.681669-190.923664 63.760447-54.435258 62.431927-47.630852 90.92698-27.251693 105.489604 8.132927 70.547822" fill="#EF3D3A" /><path d="M266.109255 242.829625A355.404669 355.404669 0 0 0 164.622244 492.702109 355.404669 355.404669 0 0 0 266.109255 742.523496a341.642563 341.642563 0 0 0 244.754276 103.377598 341.642563 341.642563 0 0 0 244.771308-103.386114 355.404669 355.404669 0 0 0 101.478495-249.812871 355.404669 355.404669 0 0 0-101.478495-249.872484 341.702176 341.702176 0 0 0-244.762792-103.386114 341.702176 341.702176 0 0 0-244.762792 103.386114z m-15.882628 515.380627A377.785122 377.785122 0 0 1 142.403597 492.915013a377.785122 377.785122 0 0 1 107.82303-265.312272A363.903791 363.903791 0 0 1 510.803918 117.556994a363.903791 363.903791 0 0 1 260.568774 110.037231A377.716993 377.716993 0 0 1 879.212754 492.915013a377.716993 377.716993 0 0 1-107.763417 265.303756 363.97192 363.97192 0 0 1-260.568774 110.045746 363.97192 363.97192 0 0 1-260.645419-110.045746z" fill="#231F20" /><path d="M661.301397 493.29824l-54.443775 8.107379-73.494411 8.115895-47.630852 1.379617-46.310847-1.379617-35.657138-10.747387-31.288351-33.894294-24.27104-69.287432-5.433306-14.90327-32.676485-10.875129-18.786636-31.186157-13.625847-44.769424 14.945851-39.557537 35.393137-12.203649 28.580214 13.583266 13.625847 29.866154 16.3425-2.699621 5.424791-6.591504-5.424791-31.186157-1.388133-39.557537 8.132928-54.264935v-30.990286l24.807557-39.557537 43.526065-31.186157 76.211065-32.565774 84.207734 12.391005 73.494412 52.74906 34.005004 54.256419 21.767291 39.557537 5.42479 97.714355-16.3425 84.131088-29.968347 74.635577-28.571698 39.557537" fill="#F0D6B7" /><path d="M614.99055 728.011969l-194.679288 8.115895v32.565774l16.529855 113.997242-8.132927 9.495512-136.139243-46.157556-9.529577-16.282887-13.625847-153.290778-31.288351-92.298081-6.617052-21.699161 108.495806-74.567447 33.996489-13.583267L403.755858 510.96926l25.872077 23.078778 29.959831 9.495512 13.625846 4.087754 16.351017 70.539307 12.229197 14.90327 31.296868-10.875129L511.331919 664.260038l118.40861 55.644552-14.945851 8.107379" fill="#335061" /><path d="M292.364559 254.564885l35.393137-12.203649 28.580214 13.583266 13.625847 29.866154 16.342501-2.699621 4.09627-16.282887-8.132928-31.186158 8.26067-74.703705-6.608536-40.68167 24.475428-28.47802 52.919383-42.069802-14.945851-20.370641-75.018803 36.593915-31.288352 24.390266-17.662504 37.982048-27.319823 36.525786-8.141443 43.38129 5.42479 46.157557" fill="#6D6B6D" /><path d="M348.196467 127.052506s20.43877-50.177181 102.074626-74.635576c81.635855-24.458395 4.104786-17.67102 4.104786-17.67102L365.9271 68.640204l-33.996488 33.885778-14.954367 27.166532 31.288351-2.708137m-40.877541 118.084996s-28.580214-94.946605 80.307336-108.521354l-4.104787-16.291404-74.882545 17.671021-21.76729 70.547822 5.42479 46.157557 14.954367-9.495513" fill="#DCD9D8" /><path d="M350.844991 371.193619l17.798762-17.202632a11.496808 11.496808 0 0 1 9.393319 10.415257c1.388133 9.495512 5.42479 94.938088 63.964835 141.087129 5.365177 4.224013-43.526065-6.591503-43.526065-6.591504l-43.526065-67.839685M601.364703 345.41522s3.176526-41.141542 14.290107-37.982049a15.243916 15.243916 0 0 1 11.113581 14.247527s-26.996209 17.407019-25.403688 23.734522m112.992336-150.591157s-22.431551 4.752014-24.483944 24.398782c-2.043877 19.646768 24.483944 4.087754 28.580214 2.699621M549.637581 196.212196s-29.976863 4.087754-29.976863 23.078778 34.005004 17.67102 43.534581 9.495512m-198.656332 55.576423s-51.727121-31.186157-57.151912-1.388133c-5.42479 29.80654-17.730633 51.565314 8.132928 82.751472l-17.662504-5.407758-16.342501-42.069803-5.42479-40.673153 31.296867-32.57429 35.384622 2.699621L363.218963 264.000784l1.396649 20.370641m24.407299-85.459608s23.146907-119.396484 140.1759-142.475262c96.377319-18.991024 146.988824 4.087754 166.039461 25.778399 0 0-86.004643-101.73398-167.427594-70.547823-81.439984 31.186157-141.57255 88.218843-140.1759 124.812758 2.299362 62.372314 1.379617 62.431927 1.379617 62.431928m315.813067-103.113597s-39.685279-1.388133-40.817928 33.894294c0.127742 3.772656 1.056003 7.477184 2.716653 10.875129 0 0 31.288351-35.273911 50.338989-16.282887" fill="#F7E4CD" /><path d="M531.975077 144.263654s-6.617052-54.137193-52.927899-22.687035c-29.968347 20.370641-27.183565 48.857177-21.758774 54.264936 5.42479 5.407758 3.968528 16.351016 8.132927 8.831252 4.172916-7.511248 2.776266-31.91003 17.730634-38.697406 14.945851-6.795891 39.685279-14.375269 49.018984-1.788392" fill="#F7E4CD" /><path d="M403.764374 510.96926l-127.938187 56.964556s52.927899 210.26385 25.872077 275.395399l-19.059153-6.591503-1.388133-80.043335-35.384622-151.638644-14.954367-42.069802 133.362977-89.530331 39.685279 37.982048m13.038233 115.836732l18.122376 22.082388v81.431467h-21.758774s-2.716653-56.973072-2.716653-63.760447c0-6.787375 2.716653-31.186157 2.716653-31.186157m4.232529 107.073608l-61.256699 2.708137 17.730634 12.195133 43.517548 6.591504" fill="#49728B" /><path d="M627.228264 729.400102l50.347504-1.388133 12.237714 124.812758-51.735638 6.591504-10.91771-130.212" fill="#335061" /><path d="M640.85411 729.400102l76.211066-4.087754s31.288351-78.655201 31.288351-82.742955c0-4.087754 27.251694-113.929113 27.251693-113.929113l-61.248181-63.760447-12.24623-10.875129-32.676485 32.565774v126.200891l-28.580214 116.696863" fill="#335061" /><path d="M674.995373 719.90459l-47.630851 9.495512 6.617052 37.982049c17.662504 8.107379 47.622335-13.583266 47.622335-13.583266m-5.356661-271.316161l95.261702 70.547822 2.708137-32.565774-72.106278-66.460068-25.863561 28.47802" fill="#49728B" /><path d="M464.8252 996.619993l-27.984083-113.929113-14.01759-84.131088-2.316394-62.431928 127.537928-6.591503h79.38759l-7.213182 142.475262 12.237713 109.909488-1.388133 20.370641-103.471275 8.107379-62.636315-13.583266" fill="#FFFFFF" /><path d="M609.565759 728.011969s-6.617052 141.095645 13.625847 241.518137a260.653936 260.653936 0 0 1-100.746105 32.625387l114.312339-4.087754 13.625847-8.107379-16.3425-222.518596-4.09627-47.469045" fill="#DCD9D8" /><path d="M692.198005 842.009211l52.919383-14.90327 100.746106-5.399242 14.954367-46.157556-27.055823-80.102948-31.296867-4.087754-43.517548 13.583266-41.882447 20.302512-22.159034-4.087754-17.270761 6.591503" fill="#FFFFFF" /><path d="M691.201615 814.851195s35.393137-16.291403 40.817928-14.90327L717.065176 725.235703l17.662504-6.591504s12.237714 70.547822 12.237713 78.655202c0 0 76.211065 4.087754 83.023989 4.087754a122.871075 122.871075 0 0 0 12.237714-63.751931l14.945851 43.38129 1.388133 24.390266L836.802305 837.989586l-24.475427 5.407758-40.817928-1.388133-13.625847-17.866892-47.630851 6.591504-14.954367 5.407758" fill="#DCD9D8" /><path d="M637.745714 718.652716l-29.959831-75.955581-31.296867-44.760907s6.617052-18.991024 16.3425-18.991024h31.288351l29.968347 10.875129-2.708137 50.177181-13.625847 78.655202" fill="#FFFFFF" /><path d="M643.570764 692.746574s-38.101274-73.25596-38.101275-84.139605c0 0 6.608536-16.274371 16.333984-12.186617s29.976863 14.90327 29.976863 14.903271v-25.786916l-46.310847-9.495512-31.296867 4.087754 52.927899 124.812758 10.909194 1.379617" fill="#DCD9D8" /><path d="M477.131043 513.668881l-37.709531-4.087754-35.657138-10.815516V510.96926l17.270761 18.991024 54.443775 24.390266" fill="#FFFFFF" /><path d="M416.274605 517.756635s42.197545 17.67102 55.831907 13.583266l1.320004 16.291403-38.101274-8.115895-23.16394-16.282887 4.113303-5.407758" fill="#DCD9D8" /><path d="M691.993617 583.424701a259.47019 259.47019 0 0 1-62.253088-8.567251c1.260391-7.451635-1.056003-14.767012 0.800519-20.183286 5.09266-3.619366 13.625847-3.619366 21.290385-4.479497a37.224111 37.224111 0 0 0-23.674909-2.640008 37.683983 37.683983 0 0 0-3.900398-12.450618c13.225588-4.615756 43.653807-34.882168 60.856439-24.86717 8.201057 4.752014 11.709712 32.046289 12.373972 45.237811a46.021298 46.021298 0 0 1-5.49292 27.890406" fill="#D33833" /><path d="M581.581676 545.783299v5.280015c-7.204667 4.743498-18.84625 4.675369-26.459691 8.626865a69.713239 69.713239 0 0 1 28.784601 7.255763c0 4.394336-0.178839 8.788671-0.536517 13.183007-13.225588 9.027124-25.26743 22.482647-40.877541 30.922157-7.349441 4.028141-33.076743 14.307139-41.013799 12.459133-4.4284-1.047487-4.837176-6.591503-6.617052-11.667131-3.772656-11.071001-12.433585-28.682408-13.234104-45.297425-0.987874-21.034901-3.108396-56.232167 19.84264-51.948541a203.519056 203.519056 0 0 1 53.85616 19.77451c8.660929 4.752014 13.693976 10.560031 26.851434 11.607518" fill="#D33833" /><path d="M594.688038 570.897438c-1.99278-11.47126-4.368787-14.698882-3.440526-24.722396 30.624091-20.370641 36.381011 35.00991 3.43201 24.722396" fill="#D33833" /><path d="M639.074234 580.197078s-9.529577-13.583266-2.716653-17.67102c6.812923-4.087754 13.625847 0 17.730633-6.591503 4.104786-6.591503 0-10.875129 1.388133-18.991024 1.388133-8.107379 8.201057-9.495512 14.954367-10.875129 6.744794-1.388133 25.863561-4.087754 28.571698 2.69962l-8.132927-24.390266-16.3425-5.407758-51.727122 29.866154-2.716653 14.90327v29.866153m-123.705658 51.292798a5061.235681 5061.235681 0 0 0-5.288532-63.487931c-2.912525-31.586416 7.604926-26.37453 35.061008-26.37453 4.172916 0 25.803948 5.007499 27.387952 8.107379 7.409054 15.099142-12.433585 11.735261 8.533187 23.138391 17.730633 9.623254 48.950855-5.86763 41.814318-27.226145-3.977044-4.743498-20.847546-1.447746-26.868467-4.615756l-31.884482-16.478758c-13.225588-6.991763-44.777939-17.211148-59.527919-7.451635-36.585399 24.782009 2.307878 86.694451 15.337594 112.540979" fill="#EF3D3A" /><path d="M531.975077 144.263654c-37.113401-8.643897-55.567907 15.490885-66.817747 40.477282-10.049062-2.444136-6.020921-16.018886-3.508655-22.94252 6.617052-18.199022 33.076743-42.461545 55.235777-39.165794 9.401834 1.388133 22.16755 9.955384 15.022496 21.690645m180.85757 42.061287h1.916134a381.932489 381.932489 0 0 0 26.468208 51.096926c-7.08544 16.419146-53.651772 30.998802-52.927899 1.447746 10.049062-4.411368 27.456082-0.919745 36.389527-6.582987-5.16079-14.111268-12.637973-26.37453-11.445711-46.157557m-162.207192 0.655744c7.937056 14.511527 10.517451 29.80654 21.826904 40.817928 5.09266 4.93937 15.022496 10.943258 10.057578 24.722396a31.46719 31.46719 0 0 1-14.358236 11.871519c-17.662504 5.20337-58.872175 1.056003-44.914198-20.907159 14.622237 0.66426 34.269005 9.495512 45.178199-1.115616-8.396928-13.191523-23.351295-39.557537-17.858376-55.380552M706.079337 334.540091c-26.459692 17.00676-56.29178 35.597525-99.885975 31.254286a29.397765 29.397765 0 0 1-3.832269-37.913919c4.692401 8.03925 1.720263 22.94252 14.877722 25.182268 24.739428 4.224013 53.52403-15.099142 71.382405-21.826903 11.045452-18.522636-0.928261-25.37814-10.91771-37.309272-20.370641-24.466911-47.690464-54.792937-46.70259-91.378336 8.201057-5.944276 8.933446 9.095253 10.125707 11.794873 10.645193 24.790525 37.368885 56.504684 56.887911 77.735457 4.769046 5.20337 12.697586 10.219385 13.557718 13.711009 2.512266 10.023514-6.617052 22.090904-5.552533 28.750537M355.213778 316.468811c-8.337315-4.743498-10.321579-25.642141-19.84264-26.366014-14.026106-0.860132-11.445711 27.089887-11.386098 43.440904-9.657319-8.694994-11.309453-35.529396-4.232529-49.308534-8.064798-3.960012-11.641583 4.343239-16.138112 7.247247 5.75692-41.601414 61.12044-19.314638 51.931509 24.858655m367.480576 35.537912c-12.373972 23.470521-29.908734 49.376663-66.162003 50.168665a89.172652 89.172652 0 0 1 0-23.734522c27.788212-2.640008 44.982327-16.742759 66.153486-26.37453m-174.180904 15.167271c23.223553 12.13552 65.829873 13.183007 97.314095 12.527263 1.43923 7.851894 2.009812 15.831531 1.720264 23.802651-40.485798 2.043877-88.448779-7.979637-99.230231-36.329914m-4.164399 22.678519c16.01037 40.153668 71.178018 35.537912 117.608091 34.422296A24.816074 24.816074 0 0 1 650.128203 437.78143c-14.886238 6.072018-55.968166 10.619644-76.670938 0-13.234104-6.915117-21.562903-22.61039-28.707956-31.841901-3.440526-4.419884-20.779417-15.823015 0-15.823015" fill="#231F20" /><path d="M704.163202 611.119235c-18.786636 32.105902-36.840884 65.140064-59.136176 93.422213 9.325189-27.422017 13.225588-73.315573 14.749979-108.325483 19.84264-9.163382 36.321398 2.043877 44.386197 14.90327" fill="#81B0C4" /><path d="M805.445825 726.564223c-21.034901 4.224013-35.85301 24.594654-56.428038 23.27465 11.309453-15.891144 31.083963-22.550777 56.428038-23.27465m9.25706 32.838291a309.749565 309.749565 0 0 1-54.767388 3.159493c8.26067-12.518747 39.685279-8.243637 54.767388-3.159493m5.82505 28.341762c-19.314638 0.400259-43.262064 0-61.656958-1.50736 10.849581-11.607518 49.087114-4.292142 61.656958 1.515876" fill="#231F20" /><path d="M667.841804 865.283861c2.784782 24.134781 12.373972 48.661306 11.18171 75.095449a79.140622 79.140622 0 0 1-31.083963 6.591503c-0.99639-22.482647-4.036657-56.828298-3.116913-78.263458 7.017311 0.468388 17.398503-5.007499 23.027682-3.491623" fill="#DCD9D8" /><path d="M636.75784 509.257513c-9.657319 6.591503-17.926505 14.170881-27.251694 20.898643-20.643158 0.987874-31.892998-1.447746-47.03472-13.183007 0-0.928261 1.788392-0.528002 1.848006-1.720263 22.090904 9.827642 50.143117-4.019625 72.770538-5.995373" fill="#F0D6B7" /><path d="M520.793367 659.320668c6.080534-26.37453 29.832089-39.566053 51.46312-54.205322 22.295292 28.222535 35.85301 64.484321 50.807377 99.426102a521.231226 521.231226 0 0 1-102.279013-45.22078" fill="#81B0C4" /><path d="M644.822638 868.775484c-0.919745 21.43516 2.129039 55.780811 3.116913 78.263458a79.140622 79.140622 0 0 0 31.083963-6.591503c1.192262-26.37453-8.396928-50.901054-11.173194-75.095449-5.620662-1.652134-16.01037 3.891883-23.027682 3.423494zM422.235913 746.875251a1117.038415 1117.038415 0 0 0 48.090723 235.505732c55.567907 16.810889 122.581525 18.258635 171.992253 3.09988-8.993059-43.185419-5.09266-95.738607-10.313063-141.819518-3.977044-34.618167-1.924651-69.491819-7.409054-104.765731-59.808952-12.331391-143.948557-2.895492-202.360859 7.979637z m216.182577-7.451635c-0.528002 37.121917 1.652134 73.707316 4.49653 110.829232 14.290107-2.112006 24.015555-3.559753 37.249659-6.591503-4.300658-35.733784-3.772656-76.02371-12.569844-107.60161a88.857554 88.857554 0 0 0-29.244474 3.363881h0.068129z m72.770539-6.003889a89.334459 89.334459 0 0 0-21.17116 0c3.040267 30.266412 10.449321 63.624189 13.234104 95.338348 10.185321 0 15.610111-4.479497 24.015555-6.063502 0.459872-27.890405-2.452652-65.932067-15.882627-89.334459l-0.195872 0.059613z m109.347422 100.022233c21.230773-5.143757 34.601135-31.118028 28.639827-57.756559-3.968528-17.935021-11.113581-51.624928-18.718507-63.104703-5.620662-8.499122-20.83903-19.77451-33.076744-11.794874-19.84264 12.655005-54.639646 16.282887-69.066012 31.5779 7.213183 23.998523 9.461447 56.973072 12.433586 87.42684 24.747944 1.515875 55.18468-6.591503 75.683063 2.043877-14.34972 4.615756-33.076743 4.683885-45.37407 11.411647 10.117191 4.87124 33.868746 3.883366 49.342598 0l0.136259 0.195872zM622.876509 704.609577c-14.954367-35.001394-28.512085-71.271696-50.807377-99.426102-21.43516 14.57114-45.246328 27.762663-51.267249 54.128677a521.231226 521.231226 0 0 0 102.202368 45.305941H622.876509z m36.78127-108.393612c-1.396649 35.00991-5.42479 80.903466-14.758495 108.325483 22.295292-28.350278 40.358055-61.316311 59.144692-93.422213-7.877443-12.859393-24.679815-24.330653-44.258454-14.90327h-0.136259z m-41.746188-14.767012c-8.465057-0.919745-15.610111 9.691384-26.459692 5.075628-2.512266 2.76775-4.82866 5.808017-7.409054 8.507638 24.27104 29.14228 35.325008 70.547822 54.111645 104.83386 10.049062-32.966033 8.933446-69.031947 11.113581-104.970118-13.966493 0.928261-21.50329-12.459134-31.160609-13.447008h-0.195871z m-26.859951-35.273911c-0.928261 10.023514 1.456262 13.191523 3.440526 24.722396 33.144873 10.219385 27.59234-45.093037-3.236138-24.722396h-0.204388z m-36.312882-12.127004a203.519056 203.519056 0 0 0-53.847644-19.783026c-22.755164-4.343239-20.575029 30.922156-19.84264 51.948541 0.723873 16.623533 9.452931 34.226424 13.225588 45.305941 1.788392 5.135241 2.180136 10.611128 6.617052 11.667132 7.800797 1.848005 33.664358-8.507638 41.013799-12.459134 15.541982-8.439509 27.651953-21.886517 40.877541-30.922157 0-4.402852 0.178839-8.797187 0.528002-13.191523a69.713239 69.713239 0 0 0-28.776086-7.247247c7.945572-3.960012 19.84264-3.891883 26.468208-8.643897v-5.271499c-12.569844-0.655744-17.602891-6.523374-26.26382-11.411647z m-135.611242-24.526524c-11.777841 11.931132 33.068227 28.14589 47.298721 29.074151 0-7.519764 4.300658-14.639269 3.440527-19.783027-17.00676-3.159493-39.233923-1.192262-50.807377-9.163382l0.068129-0.127742z m145.200432 5.603629c0 1.192262-1.584005 0.723873-1.848006 1.711747 15.141722 11.80339 26.459692 14.23901 47.026204 13.183007 9.333705-6.591503 17.534762-14.562624 27.251694-20.898643-22.286776 2.112006-50.398601 15.959273-72.498022 6.131632l0.06813-0.127743z m133.226718 40.28141c-0.655744-13.183007-4.09627-40.477282-12.365456-45.220779-17.270761-10.03203-47.894852 20.234383-60.864955 24.850138 2.018329 3.891883 3.338332 8.107379 3.908915 12.459134a37.224111 37.224111 0 0 1 23.674909 2.640008c-7.664539 0.851615-16.197726 0.792002-21.290386 4.479497-1.856522 5.407758 0.459872 12.723135-0.800519 20.183286a259.998192 259.998192 0 0 0 62.253089 8.567251c4.683885-8.48209 6.582987-18.216054 5.42479-27.822276l0.059613-0.136259z m-298.278305-34.550038c-3.704527-2.640008-28.707956-35.069524-32.148483-33.758036-45.305941 17.798763-87.64826 48.593177-125.689922 77.735457 36.117011 77.207455 50.671118 171.430187 52.919383 262.868136 41.345929 19.246509 77.667328 47.077301 133.763236 49.98131-6.617052-45.757297-12.433585-86.634838-16.078499-129.752128-14.085719-5.93576-34.328618 0-47.494593-1.848005 0-15.823015 19.84264-6.923633 21.826904-17.602891 1.260391-8.047766-11.113581-8.643897-7.068408-21.367032 10.313063 3.76414 15.737853 12.007778 26.451175 15.099142 10.057578-21.886517 0-60.652051 1.32852-79.115074 0-3.43201 1.720263-19.059153 9.452931-16.282887 7.7497 2.76775-0.391743 41.533285 0.340647 58.872175 0.655744 15.959273-1.924651 31.450158 4.556142 41.473672 55.695649-7.604926 111.766009-12.178101 167.964112-13.711009a407.046629 407.046629 0 0 1-45.050456-20.183285c-9.129317-5.135241-37.837274-15.754886-40.485798-24.390266-4.172916-13.711008 10.985839-21.034901 13.625847-32.966034-27.387952 14.90327-32.676484-14.23901-39.157278-34.882168a270.490094 270.490094 0 0 1-10.645193-43.440903 472.118564 472.118564 0 0 1-69.066011-36.926045l0.655744 0.195871z m274.339395-29.80654c37.769144-18.258635 44.513939 68.180332 29.76396 96.002608 2.316394 8.311767 10.125708 11.47126 13.234103 18.922895-21.034901 37.581789-44.454326 72.52357-66.153486 109.841358 16.01037-9.887255 38.833664-1.779876 57.6203-9.231511 6.608536-2.699621 11.837455-18.394893 17.066373-30.91364a671.558382 671.558382 0 0 0 36.048881-111.033621c2.691105-9.972417 4.258077-20.208834 4.700918-30.530413-1.66065-11.922616-17.926505-20.830513-26.459692-28.214019-15.286497-13.651395-24.875687-25.718786-40.817928-38.501534-6.617052 9.486996-20.311028 15.882628-25.59956 23.598264l0.596131 0.068129z m-360.659136-333.603314c-18.00315 19.77451-14.221978 56.700556-12.050358 82.947343 32.480613-20.379157 75.683064 1.575489 75.282804 36.253269 15.550498-0.391743 5.82505-19.314638 2.980654-31.509771-9.197447-39.566053 15.473852-83.015472 1.124133-119.404999a98.770358 98.770358 0 0 0-67.345749 31.646029v0.068129z m128.66206-114.457114c-40.690185 11.47126-92.613178 41.005283-109.619939 77.471456 13.234104-1.848005 21.971678-8.379896 34.728878-9.171898 5.544016 0.766454 11.156162 0.987874 16.742759 0.66426 11.045452-2.708137 20.370641-27.422017 28.776086-36.662045 8.396928-9.231511 17.926505-12.791264 24.611686-21.034901 4.292142-2.043877 10.645193-1.907619 10.909193-8.371379-1.984264-1.703231-3.900399-3.227622-6.148663-2.640008v-0.255485z m211.686048 10.815516C611.030538 30.062025 539.528906 12.13552 494.538063 34.481909c-36.253269 18.00315-85.331866 47.860787-102.006497 85.715093 15.610111 36.449141-4.632788 69.883562-5.884662 106.93735-0.66426 19.783027 9.325189 36.917529 10.049062 58.35269-5.356661 8.771639-21.699161 9.878739-33.076744 9.291124-3.832269-18.991024-10.449321-40.28141-30.096089-42.461545a45.612523 45.612523 0 0 0-34.073134 11.343517 45.305941 45.305941 0 0 0-15.209851 32.438032c-1.524392 28.086277 21.699161 74.703706 54.503388 71.467567 12.706102-1.251875 15.814499-13.90688 29.636217-13.779138 7.477184 14.90327-11.573454 19.783027-13.225588 30.198284 0.246968 6.259373 1.175229 12.46765 2.776266 18.531151a252.674299 252.674299 0 0 0 32.616871 75.282805c16.606501 23.743038 49.223372 27.302791 84.343993 29.610668 6.284922-13.183007 29.372216-12.331391 44.386196-8.831252-18.054247-7.128021-34.797007-24.398782-48.686854-39.566053-15.942241-17.534762-32.148483-36.321398-33.076743-59.332047 30.164219 41.669543 55.099519 78.1272 109.943552 96.453964 41.473672 13.847267 89.973171-6.591503 121.857652-28.682408 13.225588-9.291124 21.10303-23.998523 30.555962-37.44553 35.197266-50.441182 51.607895-122.436751 48.03111-192.260701-1.456262-28.81015-1.388133-57.484042-11.113581-76.807195-9.725448-19.314638-44.386196-38.373791-64.433224-19.783027-3.704527-19.77451 16.666114-31.841901 40.622057-24.782009-17.074889-21.963162-35.001394-48.329176-59.544952-62.048701l-0.127742-0.528001z m78.723331 649.416381c33.068227-16.351016 94.725185-44.037034 115.427956 0a373.101237 373.101237 0 0 1 20.575028 60.532825c5.620662 23.666393-6.080534 73.443315-30.487832 81.354822a145.345206 145.345206 0 0 1-72.770539 1.388133 39.574569 39.574569 0 0 1-8.865316-11.539389 100.575783 100.575783 0 0 0-50.543376 8.567252c1.388133 13.651395-7.868927 15.891144-16.606501 18.658894-6.608536 25.454785 13.234104 58.744433 8.269185 82.019082-3.304268 16.546888-23.743038 19.118766-38.765534 22.227163-0.255485 8.243637 0.306582 16.504307 1.66065 24.654267-3.440526 12.586876-18.854766 19.77451-33.408873 21.554386-48.03111 5.739888-120.929392 8.311767-167.103981-8.235121-12.901974-31.518287-23.019165-69.832466-33.809132-105.489604-45.050456 4.811627-81.499597-19.391283-115.819699-35.214298-11.9141-5.467371-28.316213-8.499122-33.08526-17.926505-4.76053-9.435899-2.512266-26.37453-3.636398-43.185418-2.708137-42.265674-5.024531-82.947343-16.206241-126.192375-5.024531-19.391283-13.762105-36.534302-19.84264-55.25281-5.620662-17.33889-15.482369-38.765535-18.062763-56.036295-3.832269-25.591044 20.379157-27.03879 35.853009-38.118307 23.947426-17.143019 42.665933-26.366014 68.597623-42.129415 7.681571-4.615756 30.828479-16.214758 33.477003-21.554387 5.228919-10.619644-8.993059-25.582528-12.774231-33.894294a101.597721 101.597721 0 0 1-9.980933-37.249659 72.19144 72.19144 0 0 1-48.158853-30.854027c-16.470242-24.066652-27.847825-68.572075-13.625847-102.389724 1.124132-2.640008 6.608536-7.920024 7.536797-12.007777 1.652134-8.03925-3.040267-18.786636-3.304268-27.353888-1.524392-43.977421 7.477184-81.89134 37.173013-95.142476 12.041842-47.860787 55.244293-63.820061 95.925963-87.622712a302.195736 302.195736 0 0 1 49.282985-20.898643C521.057368-6.923633 616.31907-2.571879 667.841804 36.261785c21.83542 16.487275 56.768685 51.233184 69.270399 76.415453 33.076743 66.460068 30.624091 177.621431 7.604926 258.516381a259.5809 259.5809 0 0 1-13.889848 39.557537c-4.368787 9.103769-17.994634 27.362404-16.3425 35.410169 1.652134 8.03925 31.02435 30.521897 37.377401 36.585399 11.309453 10.883645 33.076743 25.386656 34.592619 39.097665 1.532908 13.711008-6.608536 34.686297-10.713322 48.797564-14.153848 47.136914-27.915954 90.654463-43.926324 132.64762l0.204388-0.068129z" fill="#231F20" /><path d="M511.996179 377.393379c1.788392-2.376007 11.641583-6.003889 25.403689 0.655744 0 0-16.351016 2.708137-14.954367 29.866153l-6.617052-1.379617s-7.008795-24.594654-3.636398-29.14228" fill="#F7E4CD" /><path d="M631.33305 610.659362a7.460151 7.460151 0 0 1-7.477184 7.451636 7.460151 7.460151 0 0 1-7.477183-7.451636c0-4.113303 3.346849-7.451635 7.477183-7.451635s7.477184 3.338332 7.477184 7.451635m7.468667 34.609652a7.460151 7.460151 0 0 1-7.468667 7.451635 7.460151 7.460151 0 0 1-7.477184-7.451635c0-4.113303 3.346849-7.451635 7.477184-7.451635s7.477184 3.338332 7.477183 7.451635" fill="#1D1919" /></svg>