<?xml version="1.0" standalone="no"?><!DOCTYPE svg PUBLIC "-//W3C//DTD SVG 1.1//EN" "http://www.w3.org/Graphics/SVG/1.1/DTD/svg11.dtd"><svg t="1716995328225" class="icon" viewBox="0 0 1024 1024" version="1.1" xmlns="http://www.w3.org/2000/svg" p-id="1571" xmlns:xlink="http://www.w3.org/1999/xlink" width="200" height="200"><path d="M508.224 0l20.992 11.328c112.896 61.44 268.928 107.52 395.072 137.216l34.368 8.128 0.128 36.032L960 555.776c0 147.328-64.192 235.968-231.936 351.36L507.776 1024l-23.488-15.424-188.096-103.36C127.68 788.736 64 701.888 64 555.776V156.736l34.56-8.128C224.128 118.848 374.656 72.704 487.104 11.328L508.288 0z m0 102.72c-102.912 54.08-241.92 96.448-355.136 125.952v327.04c0 109.568 46.528 172.992 192.128 273.6l163.456 87.296 171.072-85.76c144.192-99.2 191.168-164.096 191.168-274.944l-1.088-327.296c-113.6-29.44-258.176-71.68-361.6-125.888z m134.848 175.936c15.936 0 30.592 8.64 38.592 22.72 7.936 14.08 7.936 31.36 0 45.44a44.416 44.416 0 0 1-38.592 22.656H553.984v318.08c0 25.024-19.968 45.44-44.544 45.44a44.992 44.992 0 0 1-44.544-45.44v-318.08H375.808a44.416 44.416 0 0 1-38.592-22.656 46.208 46.208 0 0 1 0-45.44 44.416 44.416 0 0 1 38.592-22.72h267.264z" p-id="1572"></path></svg>