<svg width="16" height="16" viewBox="0 0 16 16" fill="none" xmlns="http://www.w3.org/2000/svg">
    <path
        d="M4.19232 1L1 4.0451L1.67311 4.68717L3.71636 2.73815L3.71636 5.0861L1 7.67719L1.67311 8.31926L3.71636 6.37024L3.71635 13.4464H4.66828L4.66828 6.37024L6.71152 8.31926L7.38463 7.67719L4.66828 5.0861L4.66828 2.73815L6.71152 4.68717L7.38463 4.0451L4.19232 1Z">
    </path>
    <path
        d="M12.2836 2.55364L12.2836 9.62976L14.3269 7.68074L15 8.32281L12.2836 10.9139V13.2619L14.3269 11.3128L15 11.9549L11.8077 15L8.61537 11.9549L9.28848 11.3128L11.3317 13.2619V10.9139L8.61537 8.32281L9.28848 7.68074L11.3317 9.62976L11.3317 2.55364H12.2836Z">
    </path>
</svg>