<svg viewBox="0 0 1083 1024">
    <path
        d="M779.501198 607.250691a303.656813 303.656813 0 1 1 303.656813-303.656812 303.971483 303.971483 0 0 1-303.656813 303.656812z m0-556.588777a252.931965 252.931965 0 1 0 252.931965 252.931965A253.183701 253.183701 0 0 0 779.501198 50.661914z">
    </path>
    <path
        d="M768.236003 699.952554v277.476246H50.787782V100.253949H436.132997a23.2856 23.2856 0 0 0 0-46.571201H0v970.317252h818.897917v-324.047446a25.29949 25.29949 0 0 0-50.661914 0z m166.460574-370.933317h-155.195379a25.29949 25.29949 0 0 1 0-50.661914h155.195379a25.29949 25.29949 0 0 1 0 50.661914z">
    </path>
    <path
        d="M779.186528 328.956303a25.173622 25.173622 0 0 1-25.173622-25.173622V128.133735a25.29949 25.29949 0 1 1 50.661914 0v175.334276a25.173622 25.173622 0 0 1-25.488292 25.488292z m-428.455043-4.279516H175.019605a25.29949 25.29949 0 1 1 0-50.661914h176.215353a25.29949 25.29949 0 1 1 0 50.661914z m88.107677 243.303054H175.019605a25.29949 25.29949 0 0 1 0-50.661913h263.693689a25.29949 25.29949 0 1 1 0 50.661913z m216.178477 243.428923H175.019605a25.29949 25.29949 0 0 1 0-50.661914h479.9351a25.29949 25.29949 0 0 1 0 50.661914z">
    </path>
</svg>