<svg width="64" height="48" viewBox="0 0 64 48" fill="none">
    <rect width="64" height="48" rx="4" fill="#ffffff"></rect>
    <path d="M0 4C0 1.79086 1.79086 0 4 0H23V48H4C1.79086 48 0 46.2091 0 44V4Z" fill="#ffffff"></path>
    <path d="M0 4C0 1.79086 1.79086 0 4 0H5V48H4C1.79086 48 0 46.2091 0 44V4Z" fill="#eeeeee"></path>
    <rect x="25" y="0" width="1" height="48" rx="0.1" fill="#f6f6f6"></rect>
    <rect x="30" y="6" width="26" height="6" rx="0.1" fill="#f6f6f6"></rect>
    <rect x="30" y="16" width="16" height="6" rx="0.1" fill="#f6f6f6"></rect>
    <rect x="30" y="26" width="22" height="6" rx="0.1" fill="#f6f6f6"></rect>
    <rect x="8" y="6" width="13" height="1" rx="0.1" fill="#eeeeee"></rect>
    <rect x="8" y="11" width="6" height="1" rx="0.1" fill="#eeeeee"></rect>
    <rect x="8" y="16" width="10" height="1" rx="0.1" fill="#eeeeee"></rect>
    <rect width="64" height="48" rx="3" fill="none" stroke="#cccccc"></rect>

</svg>